<svg width="24" height="24" viewBox="0 0 24 24" fill="none" xmlns="http://www.w3.org/2000/svg">
<g clip-path="url(#clip0_489_274)">
<path fill-rule="evenodd" clip-rule="evenodd" d="M10.5879 3.76992C10.9419 3.4164 11.4155 3.20838 11.9154 3.1869C12.4152 3.16543 12.9049 3.33206 13.2879 3.65392L13.4159 3.77092L15.3159 5.66992L18.0019 5.66992C18.5063 5.67002 18.9921 5.86069 19.3618 6.20376C19.7316 6.54683 19.9581 7.01694 19.9959 7.51992L20.0019 7.66992L20.0019 10.3559L21.9019 12.2559C22.2557 12.61 22.4639 13.0838 22.4854 13.5839C22.5069 14.0839 22.3401 14.5739 22.0179 14.9569L21.9009 15.0839L20.0009 16.9839L20.0009 19.6699C20.0011 20.1745 19.8105 20.6605 19.4674 21.0305C19.1243 21.4005 18.6541 21.6271 18.1509 21.6649L18.0019 21.6699L15.3169 21.6699L13.4169 23.5699C13.0629 23.9237 12.5891 24.1319 12.089 24.1534C11.5889 24.1749 11.099 24.0081 10.7159 23.6859L10.5889 23.5699L8.68892 21.6699L6.00192 21.6699C5.49735 21.6701 5.01136 21.4795 4.64138 21.1364C4.27139 20.7933 4.04477 20.3231 4.00692 19.8199L4.00192 19.6699L4.00192 16.9839L2.10192 15.0839C1.74812 14.7299 1.53992 14.2561 1.51845 13.756C1.49697 13.2559 1.66377 12.766 1.98592 12.3829L2.10192 12.2559L4.00192 10.3559L4.00192 7.66992C4.00202 7.16552 4.19269 6.67978 4.53576 6.31001C4.87883 5.94024 5.34894 5.71375 5.85192 5.67592L6.00192 5.66992L8.68792 5.66992L10.5879 3.76992ZM15.0809 10.6529L10.8369 14.8969L9.06892 13.1289C8.88128 12.9414 8.62684 12.8361 8.36157 12.8362C8.0963 12.8363 7.84193 12.9418 7.65442 13.1294C7.46692 13.3171 7.36163 13.5715 7.36172 13.8368C7.36182 14.102 7.46728 14.3564 7.65492 14.5439L10.0589 16.9479C10.1611 17.0501 10.2824 17.1312 10.4159 17.1865C10.5493 17.2418 10.6924 17.2703 10.8369 17.2703C10.9814 17.2703 11.1245 17.2418 11.258 17.1865C11.3915 17.1312 11.5128 17.0501 11.6149 16.9479L16.4949 12.0669C16.6771 11.8783 16.7779 11.6257 16.7756 11.3635C16.7733 11.1013 16.6682 10.8505 16.4827 10.6651C16.2973 10.4797 16.0465 10.3745 15.7843 10.3722C15.5221 10.37 15.2695 10.4708 15.0809 10.6529Z" fill="white" fill-opacity="0.8"/>
</g>
<defs>
<clipPath id="clip0_489_274">
<rect width="24" height="24" fill="white" transform="translate(0.000976562)"/>
</clipPath>
</defs>
</svg>
