<svg width="34" height="30" viewBox="0 0 34 30" fill="none" xmlns="http://www.w3.org/2000/svg">
<path d="M16.6779 3.33333C16.0148 3.33333 15.3789 3.59672 14.9101 4.06557C14.4412 4.53441 14.1779 5.17029 14.1779 5.83333C14.1779 6.49637 14.4412 7.13226 14.9101 7.6011C15.3789 8.06994 16.0148 8.33333 16.6779 8.33333C17.3409 8.33333 17.9768 8.06994 18.4456 7.6011C18.9145 7.13226 19.1779 6.49637 19.1779 5.83333C19.1779 5.17029 18.9145 4.53441 18.4456 4.06557C17.9768 3.59672 17.3409 3.33333 16.6779 3.33333ZM10.8445 5.83333C10.8445 5.06729 10.9954 4.30875 11.2886 3.60101C11.5817 2.89328 12.0114 2.25022 12.5531 1.70854C13.0947 1.16687 13.7378 0.737188 14.4455 0.444036C15.1533 0.150883 15.9118 0 16.6779 0C17.4439 0 18.2024 0.150883 18.9102 0.444036C19.6179 0.737188 20.261 1.16687 20.8026 1.70854C21.3443 2.25022 21.774 2.89328 22.0671 3.60101C22.3603 4.30875 22.5112 5.06729 22.5112 5.83333C22.5112 7.38043 21.8966 8.86416 20.8026 9.95812C19.7087 11.0521 18.2249 11.6667 16.6779 11.6667C15.1308 11.6667 13.647 11.0521 12.5531 9.95812C11.4591 8.86416 10.8445 7.38043 10.8445 5.83333ZM5.01119 8.33333C4.56916 8.33333 4.14524 8.50893 3.83267 8.82149C3.52011 9.13405 3.34452 9.55797 3.34452 10C3.34452 10.442 3.52011 10.8659 3.83267 11.1785C4.14524 11.4911 4.56916 11.6667 5.01119 11.6667C5.45321 11.6667 5.87714 11.4911 6.1897 11.1785C6.50226 10.8659 6.67785 10.442 6.67785 10C6.67785 9.55797 6.50226 9.13405 6.1897 8.82149C5.87714 8.50893 5.45321 8.33333 5.01119 8.33333ZM0.0111854 10C0.0111854 8.67392 0.53797 7.40215 1.47565 6.46447C2.41333 5.52678 3.6851 5 5.01119 5C6.33727 5 7.60904 5.52678 8.54672 6.46447C9.4844 7.40215 10.0112 8.67392 10.0112 10C10.0112 11.3261 9.4844 12.5979 8.54672 13.5355C7.60904 14.4732 6.33727 15 5.01119 15C3.6851 15 2.41333 14.4732 1.47565 13.5355C0.53797 12.5979 0.0111854 11.3261 0.0111854 10ZM26.6779 10C26.6779 9.55797 26.8534 9.13405 27.166 8.82149C27.4786 8.50893 27.9025 8.33333 28.3445 8.33333C28.7865 8.33333 29.2105 8.50893 29.523 8.82149C29.8356 9.13405 30.0112 9.55797 30.0112 10C30.0112 10.442 29.8356 10.8659 29.523 11.1785C29.2105 11.4911 28.7865 11.6667 28.3445 11.6667C27.9025 11.6667 27.4786 11.4911 27.166 11.1785C26.8534 10.8659 26.6779 10.442 26.6779 10ZM28.3445 5C27.0184 5 25.7467 5.52678 24.809 6.46447C23.8713 7.40215 23.3445 8.67392 23.3445 10C23.3445 11.3261 23.8713 12.5979 24.809 13.5355C25.7467 14.4732 27.0184 15 28.3445 15C29.6706 15 30.9424 14.4732 31.8801 13.5355C32.8177 12.5979 33.3445 11.3261 33.3445 10C33.3445 8.67392 32.8177 7.40215 31.8801 6.46447C30.9424 5.52678 29.6706 5 28.3445 5ZM10.0112 19.1667C10.0112 16.8667 11.8779 15 14.1779 15H19.1779C21.4779 15 23.3445 16.8667 23.3445 19.1667V23.3333C23.3445 25.1014 22.6421 26.7971 21.3919 28.0474C20.1417 29.2976 18.446 30 16.6779 30C14.9097 30 13.214 29.2976 11.9638 28.0474C10.7136 26.7971 10.0112 25.1014 10.0112 23.3333V19.1667ZM14.1779 18.3333C13.9568 18.3333 13.7449 18.4211 13.5886 18.5774C13.4323 18.7337 13.3445 18.9457 13.3445 19.1667V23.3333C13.3445 24.2174 13.6957 25.0652 14.3208 25.6904C14.946 26.3155 15.7938 26.6667 16.6779 26.6667C17.5619 26.6667 18.4098 26.3155 19.0349 25.6904C19.66 25.0652 20.0112 24.2174 20.0112 23.3333V19.1667C20.0112 18.9457 19.9234 18.7337 19.7671 18.5774C19.6108 18.4211 19.3989 18.3333 19.1779 18.3333H14.1779ZM6.67785 19.1667C6.67785 18.2033 6.85785 17.2833 7.19119 16.44L3.08785 17.54C2.02106 17.826 1.11144 18.5238 0.558906 19.4801C0.00637049 20.4364 -0.143876 21.573 0.141186 22.64L0.787852 25.0567C1.01451 25.9024 1.40556 26.6953 1.93866 27.3899C2.47177 28.0845 3.13649 28.6673 3.89486 29.105C4.65323 29.5427 5.49039 29.8267 6.35854 29.9408C7.22668 30.0549 8.1088 29.9969 8.95452 29.77L9.01119 29.7533C8.24225 28.8373 7.64389 27.7907 7.24452 26.6633C6.50793 26.6671 5.79083 26.4268 5.20526 25.9799C4.61968 25.533 4.19862 24.9048 4.00785 24.1933L3.36119 21.7767C3.3042 21.5632 3.33434 21.3358 3.44498 21.1445C3.55562 20.9532 3.7377 20.8137 3.95118 20.7567L6.67785 20.0233V19.1667ZM24.3979 29.7667L24.3445 29.7567C25.1045 28.8467 25.7079 27.8033 26.1112 26.6633C26.8472 26.6664 27.5635 26.4257 28.1484 25.9789C28.7333 25.5321 29.1539 24.9043 29.3445 24.1933L29.9879 21.7767C30.0448 21.5632 30.0147 21.3358 29.9041 21.1445C29.7934 20.9532 29.6113 20.8137 29.3979 20.7567L26.6779 20.0267V19.1667C26.6779 18.2033 26.4979 17.2867 26.1679 16.44L30.2612 17.54C31.328 17.826 32.2376 18.5238 32.7901 19.4801C33.3427 20.4364 33.4929 21.573 33.2079 22.64L32.5612 25.0567C32.3345 25.9024 31.9435 26.6953 31.4104 27.3899C30.8773 28.0845 30.2125 28.6673 29.4542 29.105C28.6958 29.5427 27.8586 29.8267 26.9905 29.9408C26.1224 30.0549 25.2402 29.9969 24.3945 29.77" fill="white"/>
</svg>
