<svg width="23" height="20" viewBox="0 0 23 20" fill="none" xmlns="http://www.w3.org/2000/svg">
<path d="M16.0014 9.99951C18.7614 9.99951 21.0014 7.75951 21.0014 4.99951C21.0014 2.23951 18.7614 -0.000488371 16.0014 -0.000488357C13.2414 -0.000488343 11.0014 2.23951 11.0014 4.99951C11.0014 7.75951 13.2414 9.99951 16.0014 9.99951ZM21.4514 15.5995C21.0614 15.1995 20.5714 14.9995 20.0014 14.9995L13.0014 14.9995L10.9214 14.2695L11.2514 13.3295L13.0014 13.9995L15.8014 13.9995C16.1514 13.9995 16.4314 13.8595 16.6614 13.6295C16.8914 13.3995 17.0014 13.1195 17.0014 12.8095C17.0014 12.2695 16.7414 11.8995 16.2214 11.6895L8.95135 8.99951L7.00135 8.99951L7.00135 17.9995L14.0014 19.9995L22.0314 16.9995C22.0414 16.4695 21.8414 15.9995 21.4514 15.5995ZM5.00135 8.99951L0.985352 8.99951L0.985352 19.9995L5.00135 19.9995L5.00135 8.99951Z" fill="white" fill-opacity="0.8"/>
</svg>
