<svg width="302" height="349" viewBox="0 0 302 349" fill="none" xmlns="http://www.w3.org/2000/svg">
<g clip-path="url(#clip0_397_1112)">
<path d="M254.779 39.4345C254.779 39.4345 259.109 2.419 247.766 -28.9251C236.423 -60.2691 193.736 -80.2702 193.736 -80.2702C193.736 -80.2702 173.735 -37.5833 185.078 -6.23922C196.42 25.1048 223.435 50.7774 223.435 50.7774M273.136 139.138C285.606 134.626 295.772 125.344 301.398 113.336C307.025 101.328 307.65 87.5771 303.138 75.1077C298.625 62.6382 289.344 52.4721 277.336 46.8457C265.328 41.2192 251.577 40.5935 239.107 45.106C226.638 49.6184 216.472 58.8996 210.845 70.9076C205.219 82.9157 204.593 96.667 209.106 109.136C213.618 121.606 222.899 131.772 234.907 137.398C246.915 143.025 260.667 143.651 273.136 139.138Z" stroke="#FF07A9" stroke-width="1.5" stroke-miterlimit="1.5" stroke-linecap="round" stroke-linejoin="round"/>
<path d="M203.435 93.4637C203.435 93.4637 166.419 89.1346 135.075 100.477C103.731 111.82 83.7298 154.507 83.7298 154.507C83.7298 154.507 126.417 174.508 157.761 163.166C189.105 151.823 214.777 124.808 214.777 124.808M288.808 133.466C288.808 133.466 315.823 159.139 327.166 190.483C338.509 221.827 318.508 264.514 318.508 264.514C318.508 264.514 275.821 244.512 264.478 213.168C253.135 181.824 257.464 144.809 257.464 144.809M297.467 59.4349C297.467 59.4349 323.139 32.42 354.483 21.0771C385.827 9.73414 428.514 29.7353 428.514 29.7353C428.514 29.7353 408.513 72.4222 377.169 83.7652C345.825 95.1081 308.81 90.779 308.81 90.779M217.923 55.8203C217.923 55.8203 194.808 26.574 164.613 12.4388C134.433 -1.70197 90.1125 14.3369 90.1125 14.3369C90.1125 14.3369 106.151 58.6574 136.337 72.8139C166.516 86.9547 203.782 86 203.782 86M219.821 130.32C219.821 130.32 190.575 153.435 176.44 183.631C162.299 213.81 178.338 258.131 178.338 258.131C178.338 258.131 222.658 242.092 236.799 211.912C250.94 181.733 250.001 144.461 250.001 144.461M308.478 98.237C308.478 98.237 345.712 97.2936 375.913 111.444C406.093 125.585 422.132 169.906 422.132 169.906C422.132 169.906 377.811 185.945 347.632 171.804C317.452 157.663 294.321 128.422 294.321 128.422M262.243 39.7814C262.243 39.7814 261.289 2.51563 275.445 -27.6697C289.586 -57.8494 333.906 -73.8883 333.906 -73.8883C333.906 -73.8883 349.945 -29.5678 335.81 0.627551C321.669 30.8072 292.423 53.9222 292.423 53.9222" stroke="#FF07A9" stroke-width="1.5" stroke-miterlimit="1.5" stroke-linecap="round" stroke-linejoin="round"/>
</g>
<defs>
<clipPath id="clip0_397_1112">
<rect width="400" height="400" fill="white" transform="translate(0 -27.8848) rotate(-19.8944)"/>
</clipPath>
</defs>
</svg>
