<svg width="300" height="412" viewBox="0 0 300 412" fill="none" xmlns="http://www.w3.org/2000/svg">
<g clip-path="url(#clip0_397_1108)">
<path d="M64.4136 242.228C64.4136 242.228 96.2499 222.854 113.969 194.62C131.689 166.387 121.175 120.434 121.175 120.434C121.175 120.434 75.2217 130.948 57.5022 159.181C39.7828 187.415 36.1801 224.508 36.1801 224.508M-2.86145 318.068C8.37055 325.118 21.9428 327.416 34.8696 324.459C47.7964 321.501 59.0188 313.529 66.068 302.297C73.1172 291.065 75.4159 277.493 72.4582 264.566C69.5006 251.639 61.5289 240.417 50.2969 233.368C39.0649 226.319 25.4926 224.02 12.5658 226.978C-0.360947 229.935 -11.5834 237.907 -18.6326 249.139C-25.6818 260.371 -27.9804 273.943 -25.0228 286.87C-22.0651 299.797 -14.0934 311.019 -2.86145 318.068Z" stroke="#FF07A9" stroke-width="1.5" stroke-miterlimit="1.5" stroke-linecap="round" stroke-linejoin="round"/>
<path d="M-9.77317 235.022C-9.77317 235.022 -29.147 203.186 -57.3805 185.466C-85.6141 167.747 -131.567 178.261 -131.567 178.261C-131.567 178.261 -121.053 224.214 -92.8194 241.934C-64.5859 259.653 -27.4926 263.256 -27.4926 263.256M11.255 326.928C11.255 326.928 7.65235 364.021 -10.0671 392.255C-27.7865 420.488 -73.7395 431.003 -73.7395 431.003C-73.7395 431.003 -84.2536 385.05 -66.5342 356.816C-48.8147 328.582 -16.9785 309.209 -16.9785 309.209M74.9274 288.18C74.9274 288.18 112.021 291.783 140.254 309.503C168.488 327.222 179.002 373.175 179.002 373.175C179.002 373.175 133.049 383.689 104.815 365.97C76.5818 348.25 57.208 316.414 57.208 316.414M28.8116 223.268C28.8116 223.268 37.6314 187.049 30.1838 154.551C22.7503 122.062 -17.1719 97.007 -17.1719 97.007C-17.1719 97.007 -42.2272 136.929 -34.8026 169.432C-27.3691 201.921 -3.67716 230.702 -3.67716 230.702M-28.7324 270.624C-28.7324 270.624 -64.9521 261.804 -97.4497 269.252C-129.938 276.685 -154.994 316.607 -154.994 316.607C-154.994 316.607 -115.071 341.663 -82.5827 334.229C-50.094 326.796 -21.299 303.113 -21.299 303.113M51.1261 320.743C51.1261 320.743 74.7898 349.507 82.2286 382.018C89.662 414.507 64.6067 454.429 64.6067 454.429C64.6067 454.429 24.6845 429.374 17.251 396.885C9.81758 364.396 18.6232 328.168 18.6232 328.168M68.7338 248.324C68.7338 248.324 97.5147 224.632 130.018 217.207C162.506 209.773 202.429 234.829 202.429 234.829C202.429 234.829 177.373 274.751 144.876 282.199C112.387 289.632 76.1673 280.812 76.1673 280.812" stroke="#FF07A9" stroke-width="1.5" stroke-miterlimit="1.5" stroke-linecap="round" stroke-linejoin="round"/>
</g>
<defs>
<clipPath id="clip0_397_1108">
<rect width="400" height="400" fill="white" transform="translate(-39.3672) rotate(32.1125)"/>
</clipPath>
</defs>
</svg>
