<svg width="43" height="43" viewBox="0 0 43 43" fill="none" xmlns="http://www.w3.org/2000/svg">
<path d="M20.5232 9.68316C19.8617 9.72856 19.2454 10.0349 18.8097 10.5347C18.3741 11.0346 18.1548 11.687 18.2002 12.3485C18.2456 13.01 18.552 13.6263 19.0518 14.062C19.5516 14.4976 20.2041 14.7168 20.8656 14.6714C21.527 14.626 22.1434 14.3197 22.579 13.8199C23.0147 13.32 23.2339 12.6676 23.1885 12.0061C23.1431 11.3446 22.8368 10.7283 22.337 10.2926C21.8371 9.857 21.1847 9.63776 20.5232 9.68316ZM14.8747 12.5767C14.8223 11.8125 14.9209 11.0454 15.1649 10.3192C15.4089 9.59309 15.7935 8.92211 16.2968 8.34462C16.8002 7.76713 17.4123 7.29442 18.0983 6.9535C18.7843 6.61257 19.5307 6.41011 20.295 6.35765C21.0592 6.3052 21.8263 6.40379 22.5524 6.6478C23.2786 6.8918 23.9496 7.27644 24.5271 7.77975C25.1045 8.28307 25.5773 8.8952 25.9182 9.5812C26.2591 10.2672 26.4616 11.0136 26.514 11.7779C26.62 13.3213 26.1084 14.8437 25.0919 16.01C24.0754 17.1763 22.6373 17.891 21.0938 17.9969C19.5503 18.1029 18.028 17.5913 16.8617 16.5748C15.6954 15.5583 14.9807 14.1202 14.8747 12.5767ZM9.22627 15.4703C8.78528 15.5005 8.37438 15.7047 8.08395 16.038C7.79353 16.3712 7.64737 16.8062 7.67764 17.2471C7.7079 17.6881 7.91211 18.099 8.24534 18.3895C8.57857 18.6799 9.01352 18.826 9.45451 18.7958C9.8955 18.7655 10.3064 18.5613 10.5968 18.2281C10.8873 17.8948 11.0334 17.4599 11.0031 17.0189C10.9729 16.5779 10.7687 16.167 10.4354 15.8766C10.1022 15.5862 9.66726 15.44 9.22627 15.4703ZM4.35213 17.4754C4.26133 16.1524 4.6998 14.8476 5.57107 13.8479C6.44235 12.8482 7.67506 12.2356 8.99803 12.1448C10.321 12.054 11.6259 12.4924 12.6255 13.3637C13.6252 14.235 14.2379 15.4677 14.3287 16.7907C14.4195 18.1136 13.981 19.4185 13.1097 20.4182C12.2384 21.4179 11.0057 22.0305 9.68275 22.1213C8.35978 22.2121 7.05493 21.7736 6.05524 20.9023C5.05556 20.0311 4.44293 18.7984 4.35213 17.4754ZM30.9562 15.6495C30.9259 15.2085 31.0721 14.7735 31.3625 14.4403C31.6529 14.1071 32.0639 13.9029 32.5048 13.8726C32.9458 13.8423 33.3808 13.9885 33.714 14.2789C34.0472 14.5693 34.2515 14.9802 34.2817 15.4212C34.312 15.8622 34.1658 16.2972 33.8754 16.6304C33.585 16.9636 33.1741 17.1678 32.7331 17.1981C32.2921 17.2284 31.8571 17.0822 31.5239 16.7918C31.1907 16.5014 30.9865 16.0905 30.9562 15.6495ZM32.2766 10.5471C30.9536 10.6379 29.7209 11.2505 28.8496 12.2502C27.9784 13.2499 27.5399 14.5547 27.6307 15.8777C27.7215 17.2007 28.3341 18.4334 29.3338 19.3047C30.3335 20.1759 31.6384 20.6144 32.9613 20.5236C34.2843 20.4328 35.517 19.8202 36.3883 18.8205C37.2596 17.8208 37.698 16.516 37.6072 15.193C37.5164 13.87 36.9038 12.6373 35.9041 11.766C34.9044 10.8947 33.5996 10.4563 32.2766 10.5471ZM14.9563 25.9358C14.7988 23.6412 16.5333 21.6511 18.8279 21.4936L23.8162 21.1513C26.1108 20.9938 28.1009 22.7283 28.2584 25.0229L28.5437 29.1797C28.6647 30.9437 28.0801 32.6835 26.9184 34.0164C25.7567 35.3493 24.1131 36.1662 22.3491 36.2872C20.5852 36.4083 18.8453 35.8237 17.5124 34.662C16.1795 33.5003 15.3627 31.8567 15.2416 30.0927L14.9563 25.9358ZM19.0561 24.8191C18.8356 24.8343 18.6302 24.9364 18.485 25.103C18.3398 25.2696 18.2667 25.4871 18.2818 25.7076L18.5671 29.8645C18.6277 30.7464 19.0361 31.5683 19.7025 32.1491C20.369 32.73 21.2389 33.0223 22.1209 32.9617C23.0029 32.9012 23.8247 32.4928 24.4055 31.8263C24.9864 31.1599 25.2787 30.29 25.2181 29.408L24.9328 25.2511C24.9177 25.0306 24.8156 24.8251 24.649 24.6799C24.4824 24.5347 24.2649 24.4616 24.0444 24.4768L19.0561 24.8191ZM11.6308 26.1641C11.5648 25.203 11.6814 24.2728 11.9562 23.4086L7.93785 24.787C6.89314 25.1454 6.03344 25.9038 5.54768 26.8957C5.06192 27.8876 4.98985 29.0318 5.34731 30.0768L6.15793 32.4435C6.44197 33.2718 6.88638 34.036 7.4658 34.6925C8.04522 35.349 8.74828 35.8849 9.53484 36.2696C10.3214 36.6543 11.176 36.8804 12.05 36.9348C12.9239 36.9891 13.8 36.8708 14.6282 36.5866L14.6836 36.5661C13.8537 35.7048 13.1851 34.7017 12.7095 33.6043C11.9748 33.6585 11.243 33.4679 10.6282 33.0621C10.0134 32.6564 9.5503 32.0585 9.31126 31.3617L8.50064 28.995C8.42916 28.7859 8.44366 28.557 8.54095 28.3586C8.63823 28.1602 8.81034 28.0086 9.01941 27.937L11.6895 27.0187L11.6308 26.1641ZM30.035 35.5259L29.9811 35.5195C30.677 34.5596 31.2075 33.4774 31.5318 32.3125C32.2663 32.2651 32.9645 31.976 33.5174 31.4902C34.0704 31.0044 34.447 30.3492 34.5885 29.6269L35.0648 27.1719C35.107 26.955 35.0614 26.7302 34.9379 26.5469C34.8145 26.3636 34.6232 26.2369 34.4064 26.1946L31.6428 25.6526L31.5839 24.7946C31.5179 23.8335 31.2756 22.9314 30.8884 22.1093L35.0474 22.9264C36.1313 23.1387 37.0865 23.7726 37.7033 24.6888C38.32 25.605 38.5477 26.7286 38.3364 27.8127L37.8567 30.268C37.6885 31.1273 37.3526 31.945 36.8683 32.6745C36.3841 33.404 35.7608 34.0309 35.0342 34.5195C34.3076 35.0081 33.4918 35.3488 32.6335 35.522C31.7752 35.6953 30.8912 35.6978 30.0319 35.5294" fill="#9747FF"/>
</svg>
