<svg width="33" height="32" viewBox="0 0 33 32" fill="none" xmlns="http://www.w3.org/2000/svg">
<g clip-path="url(#clip0_489_256)">
<path d="M16.6243 15.6849C16.0121 15.4304 15.526 14.9431 15.2731 14.3302C15.0201 13.7173 15.021 13.029 15.2756 12.4167C15.5301 11.8045 16.0174 11.3185 16.6303 11.0655C17.2432 10.8126 17.9315 10.8135 18.5438 11.068C19.156 11.3226 19.642 11.8099 19.895 12.4228C20.1479 13.0357 20.147 13.724 19.8925 14.3362C19.7664 14.6393 19.5819 14.9147 19.3495 15.1465C19.117 15.3784 18.8412 15.5622 18.5377 15.6874C18.2342 15.8127 17.9091 15.8769 17.5808 15.8765C17.2525 15.876 16.9274 15.811 16.6243 15.6849ZM20.2713 6.91282C18.557 6.20012 16.6298 6.1976 14.9137 6.90582C13.1976 7.61403 11.8331 8.97497 11.1204 10.6892C9.10495 15.537 12.5934 25.3804 12.5934 25.3804C12.5934 25.3804 22.0322 20.9114 24.0477 16.0637C24.7604 14.3494 24.7629 12.4223 24.0547 10.7061C23.3465 8.99002 21.9855 7.62552 20.2713 6.91282Z" fill="white" fill-opacity="0.8"/>
</g>
<defs>
<clipPath id="clip0_489_256">
<rect width="24" height="24" fill="white" transform="translate(9.95898 0.459473) rotate(22.5749)"/>
</clipPath>
</defs>
</svg>
