<svg width="358" height="415" viewBox="0 0 358 415" fill="none" xmlns="http://www.w3.org/2000/svg">
<path fill-rule="evenodd" clip-rule="evenodd" d="M697.201 -367.1C779.419 -352.785 885.328 -493.661 936.854 -428.004C988.779 -361.839 787.907 -282.014 823.709 -205.897C873.03 -101.041 1145.22 -148.824 1121.54 -35.3591C1098.01 77.3801 851.355 -97.026 781.824 -5.21372C710.315 89.2114 891.517 236.619 836.233 341.376C798.664 412.565 677.836 334.244 597.887 343.328C507.38 353.612 407.313 452.139 333.727 398.473C252.595 339.303 307.189 201.736 273.833 106.995C252.647 46.821 211.024 -1.4599 174.506 -53.758C118.628 -133.783 -4.46195 -187.082 0.399506 -284.596C4.89467 -374.762 139.687 -396.653 195.152 -467.89C251.032 -539.658 235.555 -698.706 326.364 -703.243C442.069 -709.025 507.631 -565.591 593.46 -487.792C633.262 -451.713 644.276 -376.314 697.201 -367.1Z" fill="#ED006C"/>
</svg>
