<svg width="303" height="29" viewBox="0 0 303 29" fill="none" xmlns="http://www.w3.org/2000/svg">
<path d="M299.256 24.7852C297.381 24.8172 295.006 24.3184 293.245 23.7825C292.694 23.616 293.034 23.2322 292.656 23.0977C291.919 22.8349 291.187 22.9456 290.468 22.6473C290.229 22.5463 290.63 21.924 290.379 21.8333C289.006 21.3415 287.65 21.3155 286.25 20.9588C280.044 19.3734 273.979 18.0559 267.786 16.7517C267.164 16.6178 266.534 16.4961 265.889 16.3834C263.774 16.0081 261.076 15.2059 258.693 15.3452C258.414 15.3619 258.548 15.9596 258.492 16.0053C257.63 16.7047 257.972 15.5309 257.433 15.3454C255.327 14.6156 252.918 14.4648 250.816 14.6097C249.925 14.6733 250.77 15.8784 249.904 15.1867C249.843 15.1399 250.094 14.5231 249.852 14.4469C249.289 14.2746 248.255 14.3464 247.821 14.2799C247.013 14.1496 246.845 14.1494 246.082 14.1123C245.007 14.055 243.743 13.6933 242.601 13.7889C242.353 13.811 242.654 14.4657 242.255 14.5587C241.846 14.6513 240.837 14.5552 240.481 14.3889C240.132 14.2228 240.306 13.7251 240.248 13.607C239.798 12.6114 238.522 13.9101 238.373 13.937C235.659 14.3669 233.36 13.5757 230.846 13.3999C230.743 13.3926 230.638 13.3864 230.533 13.3816C228.556 13.2924 226.435 13.4734 224.552 13.3854C222.309 13.2784 220.394 12.8904 218.206 12.913C217.972 12.9147 218.233 13.6738 217.948 13.6774C214.95 13.7161 211.97 13.6034 208.978 13.0736C208.679 13.0198 209.07 12.3598 208.771 12.2665C206.932 11.7092 204.029 10.39 202.925 13.2724C201.682 13.1563 200.168 13.0375 199.054 12.4552C198.335 12.0804 199.034 11.359 198.15 11.6665C197.951 11.735 198.209 12.3673 197.911 12.4222C196.653 12.6532 195.276 12.4481 194.034 12.7758C193.781 12.8439 193.85 13.4103 193.779 13.5123C193.175 14.3389 192.171 12.9746 191.954 12.8757C190.283 12.138 189.064 12.4313 187.516 12.4159C187.154 12.4121 187.583 13.1721 187.235 13.1957C185.435 13.308 183.576 13.2461 181.808 12.911C181.418 12.8346 181.776 12.186 181.59 12.1163C180.767 11.817 180.575 13.0413 179.787 12.7776C179.621 12.7235 179.714 12.1687 179.684 12.1078C179.214 11.1517 178.791 12.5072 178.669 12.5372C177.12 12.9468 176.129 11.5318 174.624 11.7302C174.444 11.7554 174.848 12.458 174.343 12.4857C171.814 12.6274 169.168 12.5445 166.605 12.2335C165.733 12.1308 164.933 12.0047 164.088 11.8541C163.572 11.7606 163.949 11.2384 163.917 11.173C163.404 10.15 163.048 11.5057 162.871 11.5543C161.528 11.9028 160.328 10.7389 159.369 12.3403C153.747 11.6618 148.033 12.372 142.528 10.5346C142.46 10.5132 142.629 9.85272 142.492 9.81285C140.817 9.32365 141.066 10.3827 139.885 11.5863C139.59 11.888 138.838 10.3084 138.765 10.1933C138.512 9.76598 138.84 8.78254 138.751 8.69802C138.597 8.5595 138.474 8.59318 138.367 8.73283C137.979 9.265 137.784 11.327 136.969 11.2956C136.936 11.2888 137.099 10.6877 137.013 10.6239C136.727 10.423 136.486 10.655 136.209 10.4353C135.637 9.92966 135.47 8.31947 134.51 9.21867C134.391 9.33575 134.499 11.2107 133.581 11.0913C133.204 11.0412 131.589 11.0231 131.125 10.8894C130.669 10.7553 131.001 10.1617 130.968 10.1346C129.776 9.30432 130.221 8.98627 129.65 7.79082C129.062 6.59993 129.161 9.40752 128.898 9.71415C128.638 10.0198 127.757 9.3418 127.53 9.10839C127.317 8.87502 127.597 8.49792 127.406 8.36434C126.118 7.4916 126.803 9.74398 126.359 10.1801C125.334 11.2141 124.579 9.12144 123.638 8.90347C123.383 8.84464 123.584 9.32128 123.361 9.36232C122.48 9.51891 121.944 8.86305 120.927 9.44709C120.751 9.54209 119.937 10.7843 119.411 9.8626C119.336 9.72969 119.556 9.2132 119.173 9.09408C118.609 8.91528 117.585 8.79569 116.978 8.96638C116.531 9.09265 117.04 9.94862 116.478 9.68114C116.226 9.56179 116.695 9.06392 116.222 8.88141C115.74 8.69874 114.557 8.71864 114.089 8.73606C113.626 8.75367 113.88 9.40141 113.842 9.44504C113.621 9.69488 112.753 10.0082 112.673 10.0077C108.769 10.0944 105.154 9.03902 101.363 9.46446C101.067 9.49695 101.276 10.1765 101.231 10.1885C100.217 10.4925 100.99 8.66251 100.262 8.06771C100.395 9.45162 99.9516 9.20849 99.2478 9.37437C98.9047 9.45556 99.103 9.98844 99.0727 10.044C98.5781 10.8692 98.1965 9.82415 98.0991 9.61076C97.7396 8.82584 97.3846 9.77003 97.1458 9.24564C96.904 8.72529 97.4169 7.93427 96.7302 7.95976C96.5486 8.4602 97.0885 9.74481 96.5715 9.96684C95.5993 10.3815 94.2232 10.3664 92.8525 10.2412C91.462 10.1116 90.1198 9.88028 89.3255 9.86502C87.7356 9.83735 87.2433 9.9623 86.3116 9.84238C84.6397 9.63186 85.3 10.5512 84.3236 11.0673C83.3334 11.5888 83.6356 9.19028 83.4452 8.69514C83.2552 8.20062 83.1387 8.73592 82.9331 8.47309C82.7275 8.21039 83.0907 7.83142 82.6543 7.76419C82.224 7.69543 81.1169 8.71001 81.0299 9.25447C80.8268 10.4082 81.4663 11.5305 80.3048 11.2335C80.238 11.2158 80.3808 10.5748 80.1282 10.5384C78.1207 10.2703 76.0839 10.4998 74.0722 10.374C73.798 10.3554 73.932 9.63498 73.7709 9.61655C72.0545 9.43395 72.8329 10.4958 72.1517 11.9212C72.066 10.187 71.4076 9.2205 70.1525 9.43359C69.4075 9.56119 69.6622 10.2817 69.2857 10.8923C69.1775 11.0753 68.5498 10.6685 68.5227 11.0351C68.4311 12.2345 69.1749 13.4069 67.8224 13.1516C67.7626 13.1387 67.8114 12.4815 67.6137 12.4825C66.3372 12.4891 66.4369 13.7067 65.1621 14.1418C64.1585 14.4835 62.1731 14.2015 60.9523 14.3871C60.4995 12.4997 59.5042 13.2101 59.3675 14.6249C58.5875 14.7657 57.7683 15.0497 56.9527 15.0442C56.9476 15.0441 56.9424 15.0441 56.9373 15.044C56.6638 15.0392 56.7149 14.453 56.6691 14.4008C55.9676 13.5792 55.9032 14.9231 55.7435 15.0091C54.011 15.8809 52.3311 15.2017 50.7562 16.4721C50.7006 16.5175 50.8415 17.8624 50.1951 16.9793C50.1531 16.918 50.6225 16.21 49.7895 16.3122C48.9562 16.4147 47.2806 15.9731 46.2424 16.7799C45.9899 16.9749 45.4681 18.1711 44.7657 17.42C44.6718 17.3177 44.6913 16.9228 44.5482 16.7283C44.0882 16.1091 44.1165 17.4848 43.5218 16.4088C42.9241 15.3333 41.9381 14.6145 40.913 15.5861C40.8807 15.6148 40.7768 16.7247 40.411 16.7654C39.8296 16.8292 38.9698 16.7375 38.3703 16.8396C38.0809 16.8893 38.3715 17.5221 38.3231 17.5422C36.4375 18.2224 34.963 17.8507 32.8401 17.9447C32.4515 17.9603 31.5177 19.0478 30.6538 18.4684C29.7062 17.8361 29.9568 14.4395 28.2085 15.564C27.4829 16.022 27.3786 20.2941 25.5916 18.4678C23.4442 19.4131 21.1606 19.1987 19.0613 20.2349C18.7322 20.3995 18.4265 20.5812 18.1118 20.8008C18.0091 20.8722 18.0287 22.0969 17.752 22.172C17.3353 22.2831 16.961 21.8313 16.6586 21.8903C15.4173 22.1132 14.4474 22.8806 13.2587 23.1232C12.8009 23.2172 12.8214 22.6299 12.2829 22.7362C11.7536 22.8392 11.5719 23.649 10.7704 23.4723C10.1573 23.3378 9.27954 21.9846 8.51651 21.9791C8.82379 23.4437 8.32382 23.5234 7.53094 24.1209C7.37988 24.2366 7.68451 24.698 7.61996 24.7787C7.36829 25.1165 6.96246 24.7746 6.73807 25.1382C6.6843 25.2256 6.81784 25.7185 6.78284 25.8176C6.50302 26.6692 5.42813 25.8257 5.20724 25.7033C4.41031 25.2047 4.44876 25.927 3.95947 25.8682C3.43665 25.8419 3.80411 25.1665 3.24905 25.3073C3.04333 25.366 2.83749 25.4541 2.63727 25.5696C2.14258 25.9759 2.53259 26.7066 3.15134 26.5422C4.16037 26.46 5.20871 26.0384 6.07373 25.7325C6.49118 25.5809 5.96494 25.0514 6.0191 25.0149C6.79849 24.5336 7.93124 24.8472 7.85846 23.4015C9.82159 26.3776 8.22736 22.8793 9.67349 22.9938C9.78812 23.0035 10.6065 24.4551 10.3437 24.8436C10.0782 25.2328 9.31461 25.0054 8.9549 25.5729C8.87378 25.7061 8.77081 27.4371 8.7038 27.5653C8.20633 28.565 7.17953 26.2979 7.09259 26.1867C6.11209 24.9945 5.85309 26.8784 5.64661 27.0728C5.00797 27.7033 4.27853 27.8658 3.59406 28.1281C1.16531 28.7734 -0.365601 25.9055 1.57623 24.3104C1.84497 24.0486 2.11267 23.796 2.35953 23.5147C2.91782 22.8934 2.30252 21.399 2.96445 21.1571C5.10944 20.4889 6.11484 22.665 7.15652 20.3725C7.37555 19.8906 6.67053 18.2296 8.09317 19.3347C8.17743 19.4056 9.2775 20.4637 9.54395 19.57C9.57782 19.4572 9.45682 18.9539 9.52228 18.8937C9.95657 18.5013 10.383 18.8225 10.8733 18.4957C11.3633 18.1687 11.9127 17.7203 12.5617 17.7222C12.9429 17.7259 13.678 18.5176 13.9188 18.6928C14.6113 19.1989 14.8147 17.9692 15.3589 18.6613C15.9208 19.3516 15.6783 20.7489 16.679 20.9904C16.2963 19.7006 15.9395 18.3651 15.5674 17.0637C16.2852 16.8503 16.9927 16.6958 17.7275 16.5254C19.0145 16.2002 20.2558 15.9769 21.4506 15.6218C21.7027 15.546 21.2604 14.9148 21.5231 14.8169C22.6514 14.4046 23.751 14.6778 24.8742 14.2246C25.7437 13.8715 26.5769 12.923 27.4816 12.554C28.3422 13.9553 29.6188 13.1896 30.6398 13.1558C30.9961 13.1432 31.043 13.5523 31.3138 13.6418C32.3277 13.9717 31.6628 12.7057 31.8829 12.4512C32.8356 11.3649 33.4287 14.387 34.6947 14.1037C34.7611 14.0897 35.3322 12.3354 35.4287 12.2166C36.0489 11.4424 35.6389 12.7613 36.1126 12.8083C36.9752 12.895 37.6126 13.1907 38.5031 12.5631C38.7652 12.3774 39.2773 11.2608 39.9493 11.9551C40.0377 12.0459 40.0829 12.5879 40.146 12.6101C41.2737 12.9668 41.036 11.2787 41.5383 10.6137C42.0411 9.94868 43.1466 10.9609 43.388 11.2649C44.0185 12.0506 43.0737 11.6961 43.0614 11.7851C42.9149 12.8467 43.556 12.5641 44.0836 12.565C44.43 14.2016 45.1305 13.9841 44.6277 12.5593C44.5715 12.404 44.1999 12.6233 44.0836 12.565C44.2673 10.8732 45.0131 10.5372 46.1331 11.9009C46.6585 12.5395 46.4182 13.4314 47.5991 12.9162C48.1349 12.6823 47.7209 11.5868 48.1569 11.1913C49.15 10.2892 50.7919 11.0782 51.9086 10.6883C52.3126 10.547 51.7874 10.0078 52.0585 9.88994C52.7753 9.57522 53.53 9.90496 54.2306 9.51135C54.2937 9.47493 53.9936 8.86419 54.2236 8.80739C54.6665 8.69454 55.0998 8.61457 55.5296 8.55112C56.6372 8.39574 57.9508 8.29327 59.3667 7.94755C60.2883 7.71957 61.8785 6.95753 62.8784 6.80472C64.5963 6.53242 66.9007 7.03261 68.304 6.53293C69.2183 6.20974 68.9046 5.59884 69.2313 5.08261C69.8712 4.08017 71.5456 5.38288 71.7744 5.59203C71.7809 5.59855 70.9772 5.88857 71.4737 6.14972C71.8436 6.80367 71.7669 5.59638 71.7744 5.59203C71.9144 5.72499 73.5865 5.61702 73.891 5.44796C74.0592 5.3538 73.8696 4.75007 73.9596 4.71263C76.0954 3.83814 78.3128 3.41008 80.593 3.47839C80.6335 3.48707 80.6431 4.18836 80.7372 4.20014C82.0663 4.38273 82.814 3.46106 83.8562 2.8698C84.8911 2.28033 85.7685 2.39261 86.4778 3.55028C87.2895 3.34743 88.4658 3.81551 89.1494 4.10617C89.8219 4.39702 89.859 3.03485 89.9165 3.00527C90.978 2.46056 91.7608 2.48735 92.6423 2.61852C93.2597 2.71424 93.9024 2.86383 94.6776 2.8952C95.5688 2.93233 97.301 2.69499 98.2702 2.52655C99.0284 2.39105 99.4736 2.70126 100.179 2.48433C100.274 2.45538 100.167 1.85153 100.195 1.82768C100.964 1.08896 100.614 2.57632 100.78 2.83784C101.379 3.78927 101.737 4.29519 102.735 3.82744C102.964 3.72028 103.597 1.57879 104.014 1.44855C104.563 1.28306 104.366 2.04987 104.937 1.85761C104.985 1.84189 104.97 1.37051 105.322 1.38714C106.958 1.4581 108.752 1.71714 110.448 1.66169C110.682 1.65592 110.379 0.909525 110.717 0.888933C112.274 0.793053 114.038 0.818758 115.555 1.1725C115.938 1.26194 115.697 1.78496 115.779 1.94063C116.288 2.88256 117.001 1.51878 117.117 1.49333C119.931 0.850504 122.094 2.1096 124.957 1.56813C125.119 1.53603 126.338 0.0924683 126.863 1.36034C126.902 1.44473 127.398 2.74071 127.888 1.87232C127.918 1.81801 127.597 1.1488 128.182 1.2293C128.756 1.30945 129.699 0.890047 130.476 1.63846C130.726 1.87431 131.279 3.17218 132.058 2.17262C132.099 2.10217 133.328 -0.172743 133.707 1.4359C133.77 1.7008 133.625 3.38408 134.563 2.55046C134.738 2.38873 134.446 2.00177 134.897 1.78241C135.61 1.44499 136.501 1.93072 137.378 1.21309C137.533 1.08589 138.196 -0.0338593 138.652 0.854107C138.663 0.878252 138.668 0.915073 138.669 0.959812C138.678 1.17247 138.593 1.56272 138.832 1.62461C140.209 1.98489 141.583 1.70518 142.819 2.17798C143.262 2.34489 142.963 3.23794 143.419 3.51284C143.864 3.78711 144.78 4.08098 145.292 3.69469C145.794 3.30762 145.357 1.82741 146.085 1.75394C149.219 1.43128 152.282 2.40456 155.434 2.62047C155.9 2.6524 155.522 2.1222 156.223 2.13168C158.743 2.16573 163.186 1.75622 165.373 2.88361C167.14 3.78831 164.888 4.43557 166.252 4.81087C166.394 4.84913 166.54 4.80238 166.684 4.7047C167.187 4.34534 167.664 3.29731 167.79 3.25661C169.34 2.72975 170.403 3.4827 171.813 3.2586C172.098 3.212 171.821 2.52695 172.063 2.49482C172.895 2.37898 173.785 2.68629 174.582 2.63156C174.944 2.60542 174.878 2.08285 175.212 2.12354C175.999 2.21482 176.702 2.43471 177.478 2.92434C177.548 2.96896 177.077 3.61896 177.659 3.64307C178.605 3.6802 179.788 4.1624 180.885 3.66218C181.212 3.5117 181.224 2.31759 181.919 3.1413C182.066 3.31332 181.879 4.74751 182.693 3.50734C182.834 3.30127 184.191 1.62795 184.867 2.70391C185.045 2.9871 185.503 4.15964 185.89 3.97454C185.943 3.94503 185.73 3.304 186.053 3.24085C187.195 3.02946 188.389 3.09571 189.568 2.89289C189.883 2.83746 189.414 2.17449 189.881 2.11309C191.162 1.94325 192.77 2.1101 194.03 2.31685C194.494 2.39433 194.174 2.9444 194.208 3.0042C194.75 3.97698 195.07 2.66323 195.251 2.58654C196.373 2.12736 197.225 2.74439 198.259 2.58161C198.545 2.53836 198.343 1.91192 198.399 1.8561C198.989 1.31079 198.549 2.43532 198.922 2.55957C199.966 2.91144 201.131 2.86277 202.188 2.78518C202.576 2.75576 202.142 2.02848 202.49 2.0105C204.556 1.89035 206.698 1.96868 208.716 2.38221C209.095 2.4614 208.853 3.01906 208.931 3.1473C209.466 4.04446 210.278 2.83165 210.463 2.71706C211.306 2.19367 211.62 2.69104 212.366 2.60585C215.982 2.17985 220.46 2.57681 223.882 2.87105C226.584 3.10004 228.925 3.43839 231.311 3.70022C232.849 3.87072 234.358 3.99104 236.023 4.01101C236.29 4.01487 236.055 3.25964 236.285 3.25339C239.248 3.20618 242.155 3.61793 245.133 3.52085C245.374 3.5141 245.056 2.79565 245.443 2.76105C246.261 2.68607 247.269 2.76382 248.075 3.02052C248.462 3.14418 247.914 3.7285 248.303 3.84058C249.235 4.10388 250.229 4.19268 251.185 4.11711C251.6 4.08375 251.006 3.33848 251.542 3.35126C255.16 3.42641 258.744 3.43283 262.51 4.63799C262.772 4.72164 262.889 6.19983 263.466 5.96465C263.542 5.56263 263.579 5.08548 263.633 4.65362C265.596 4.73284 267.626 4.9613 269.684 5.3553C273.022 6.00514 276.317 6.7976 279.658 7.40088C279.875 7.43989 279.625 6.6115 280.046 6.68302C282.483 7.09635 284.872 7.2652 287.231 8.40932C287.465 8.52165 287.132 9.8534 287.888 9.75951C288.024 9.74227 289.141 9.72593 289.467 9.47382C289.512 9.43517 289.407 8.77497 289.76 8.80825C291.811 9.01271 293.913 9.45121 295.882 10.0879C296.198 10.1917 295.769 10.8231 295.995 10.9028C297.608 11.4652 299.444 11.148 300.952 11.9061C301.96 12.4144 301.471 13.5487 301.94 14.7485C302.006 14.918 302.667 14.9964 302.65 15.6691C302.612 17.3621 302.139 19.1827 302.137 20.9901C302.137 21.3803 303.1 21.0316 302.479 21.9268C302.437 21.9871 301.729 22.2451 301.535 22.5481C301.401 22.7579 301.557 23.4568 301.294 23.7179C301.031 23.9786 300.811 23.3849 300.386 23.6795C299.96 23.9773 300.063 24.7691 299.256 24.7852ZM92.1831 5.42807C92.8164 6.0629 92.8435 3.66853 92.1883 4.26038C92.1568 4.29186 92.1505 5.39701 92.1831 5.42807ZM19.9441 17.9942C21.0383 18.7598 21.1555 17.1197 20.3562 16.5003C19.5457 15.8883 19.5974 17.7682 19.9441 17.9942ZM12.4794 21.1567C13.5699 21.727 12.7974 18.4201 12.0753 19.3241C12.0326 19.3755 12.4163 21.1233 12.4794 21.1567ZM299.271 14.8311C299.275 14.8636 299.751 14.9425 299.765 14.9122C300.093 14.1813 299.148 14.0248 299.271 14.8311ZM4.78247 23.9968C5.22324 24.3157 5.87833 23.5626 5.35422 23.1267C4.91388 22.7737 4.20499 23.6016 4.78247 23.9968ZM123.63 7.73525C123.64 7.77102 123.993 7.80851 123.988 7.60689C123.975 6.95741 123.478 7.13317 123.63 7.73525ZM13.8021 22.5879C11.9571 23.135 9.57578 21.1685 11.8741 20.5258C12.2812 20.4219 11.3784 21.6947 11.9657 21.7263C13.0021 21.7971 13.0031 19.9313 14.2219 20.5013C14.4409 20.6067 13.9052 22.562 13.8001 22.5928C13.8008 22.5912 13.8015 22.5896 13.8021 22.5879ZM92.6197 8.29044C92.6249 8.30281 92.7044 8.31279 92.7995 8.31848C92.9447 8.32718 93.1254 8.32573 93.1319 8.30659C93.2748 7.85517 92.9934 7.65769 92.7833 7.73198C92.636 7.78385 92.5254 7.96819 92.6197 8.29044ZM143.861 9.96633C143.882 10.0357 145.01 10.1691 145.041 10.1082C145.699 8.90442 143.448 8.63342 143.861 9.96633ZM60.921 14.3416C60.6059 15.2089 60.019 15.451 59.37 14.6253C59.8992 14.5439 60.4057 14.4228 60.921 14.3416Z" fill="#FBBBD5"/>
</svg>
