<svg width="243" height="25" viewBox="0 0 243 25" fill="none" xmlns="http://www.w3.org/2000/svg">
<path d="M3.12485 22.8089C4.64446 22.8784 6.55758 22.4392 7.9689 21.9537C8.41005 21.8029 8.12766 21.4109 8.42971 21.2874C9.01922 21.0461 9.61256 21.1778 10.1861 20.9021C10.3763 20.8085 10.0384 20.1765 10.2394 20.0936C11.3352 19.645 12.4274 19.662 13.5474 19.3526C18.5104 17.9776 23.3568 16.8937 28.3022 15.82C28.7874 15.7111 29.2806 15.6113 29.7865 15.518C31.4444 15.2078 33.5796 14.4492 35.4808 14.6172C35.7035 14.6372 35.6026 15.233 35.6471 15.2793C36.3408 15.9886 36.0574 14.8113 36.4853 14.632C38.1596 13.926 40.0847 13.7967 41.7656 13.96C42.4793 14.0314 41.8117 15.2288 42.4993 14.5448C42.5474 14.4986 42.343 13.8798 42.5358 13.8056C42.9842 13.6383 43.8123 13.719 44.1594 13.6562C44.8041 13.533 44.9391 13.5342 45.5486 13.5039C46.4076 13.4559 47.4183 13.1055 48.3319 13.2114C48.5304 13.2357 48.294 13.8874 48.614 13.984C48.9425 14.0802 49.7483 13.9935 50.0319 13.8305C50.3099 13.6677 50.1685 13.1685 50.2131 13.051C50.5662 12.06 51.5954 13.3702 51.716 13.3986C53.8964 13.8554 55.7346 13.0828 57.7507 12.9366C57.8283 12.9308 57.9065 12.9262 57.9855 12.9227C59.5624 12.8541 61.2553 13.0515 62.7579 12.9753C64.5483 12.8823 66.077 12.5032 67.8243 12.5341C68.0106 12.5367 67.8046 13.2947 68.0322 13.2994C70.4277 13.349 72.8071 13.243 75.1968 12.7177C75.436 12.6644 75.1229 12.0038 75.3617 11.9109C76.83 11.3564 79.1506 10.0397 80.0341 12.9226C81.0277 12.8072 82.2376 12.689 83.1281 12.1068C83.7026 11.7321 83.1435 11.0106 83.8504 11.3182C84.0098 11.3868 83.8028 12.019 84.0418 12.074C85.0468 12.305 86.1475 12.0999 87.1402 12.4273C87.3431 12.4954 87.2872 13.0618 87.3446 13.1638C87.827 13.9902 88.6295 12.6257 88.8038 12.5267C90.1394 11.7885 91.1139 12.0813 92.351 12.0654C92.6408 12.0613 92.297 12.8216 92.5757 12.845C94.0159 12.9566 95.5005 12.8939 96.9152 12.5582C97.2272 12.4817 96.9413 11.8333 97.0903 11.7636C97.7472 11.464 97.901 12.6882 98.5314 12.4243C98.6644 12.3703 98.5899 11.8154 98.6143 11.7545C98.9911 10.7983 99.3275 12.1538 99.4254 12.1838C100.665 12.5932 101.458 11.1783 102.66 11.3772C102.804 11.4024 102.481 12.1048 102.885 12.1327C104.923 12.2764 107.056 12.1936 109.121 11.8833C109.803 11.7838 110.427 11.6622 111.089 11.5175C111.502 11.4256 111.199 10.9023 111.225 10.8369C111.634 9.81557 111.918 11.1725 112.061 11.2216C113.139 11.5747 114.096 10.4159 114.867 12.0218C119.364 11.3694 123.947 12.1249 128.344 10.3739C128.399 10.3535 128.255 9.69113 128.364 9.65328C129.699 9.18941 129.514 10.2441 130.468 11.4628C130.707 11.7684 131.288 10.1982 131.346 10.0835C131.544 9.65872 131.275 8.67256 131.344 8.58892C131.496 8.41835 131.612 8.51377 131.712 8.74811C131.987 9.41911 132.176 11.2241 132.786 11.2013C132.812 11.1948 132.68 10.5925 132.747 10.5295C132.967 10.3314 133.173 10.5649 133.386 10.3478C133.846 9.84696 133.963 8.23888 134.74 9.14519C134.837 9.2631 134.756 11.1371 135.494 11.0244C135.788 10.9774 137.088 10.9701 137.452 10.8392C137.822 10.7079 137.55 10.1124 137.575 10.0855C138.523 9.26258 138.165 8.94188 138.618 7.74978C139.081 6.56232 139.015 9.36898 139.226 9.677C139.441 9.98392 140.134 9.31057 140.318 9.07813C140.49 8.84572 140.263 8.46737 140.416 8.3347C141.439 7.46795 140.901 9.71698 141.256 10.1551C142.082 11.1933 142.678 9.10354 143.427 8.88867C143.631 8.83067 143.474 9.30661 143.652 9.34836C144.353 9.5077 144.785 8.8533 145.596 9.4397C145.735 9.53513 146.391 10.779 146.809 9.85821C146.868 9.72543 146.692 9.20858 146.997 9.0901C147.453 8.91224 148.262 8.79401 148.753 8.96518C149.109 9.09183 148.704 9.94738 149.152 9.68035C149.353 9.56118 148.978 9.06297 149.356 8.8808C149.739 8.6985 150.688 8.71874 151.06 8.73608C151.43 8.75364 151.227 9.40141 151.257 9.44503C151.439 9.69488 152.128 10.0079 152.192 10.0073C155.314 10.092 158.199 9.02809 161.232 9.43894C161.469 9.47027 161.3 10.1506 161.336 10.1624C162.144 10.4623 161.532 8.63558 162.115 8.03782C162.006 9.42219 162.358 9.17723 162.923 9.34001C163.197 9.41963 163.037 9.95337 163.061 10.0088C163.453 10.8317 163.761 9.78486 163.84 9.57102C164.129 8.78443 164.413 9.72684 164.604 9.20126C164.799 8.67973 164.393 7.89141 164.941 7.91338C165.084 8.41282 164.648 9.70011 165.06 9.91943C165.853 10.3388 166.989 10.3049 168.109 10.1626C169.192 10.0224 170.229 9.7888 170.85 9.76523C172.119 9.71936 172.51 9.83648 173.257 9.70299C174.593 9.46617 174.058 10.3952 174.831 10.8936C175.611 11.3958 175.405 9.00607 175.564 8.50801C175.723 8.01057 175.809 8.54292 175.978 8.27645C176.147 8.01011 175.86 7.6388 176.212 7.56311C176.557 7.48612 177.431 8.47525 177.491 9.01647C177.637 10.1634 177.1 11.298 178.037 10.9745C178.091 10.9552 177.988 10.3189 178.191 10.2766C179.802 9.96063 181.43 10.1311 183.049 9.93849C183.27 9.91088 183.18 9.19799 183.31 9.17429C184.695 8.93372 184.039 10.0167 184.549 11.4104C184.667 9.68209 185.218 8.69681 186.23 8.86081C186.823 8.95753 186.6 9.68427 186.885 10.2755C186.969 10.4533 187.482 10.0221 187.495 10.3853C187.53 11.572 186.897 12.7693 187.99 12.4555C188.039 12.4401 188.021 11.7901 188.18 11.7824C189.207 11.731 189.087 12.9436 190.096 13.312C190.889 13.6011 192.512 13.2211 193.487 13.3374C193.931 11.4481 194.714 12.0982 194.763 13.4883C195.393 13.5867 196.052 13.8272 196.722 13.7827C196.749 13.7808 196.773 13.7704 196.793 13.7537C196.94 13.6328 196.929 13.1805 196.963 13.1332C197.56 12.2867 197.564 13.6163 197.69 13.6945C199.062 14.4827 200.441 13.7392 201.672 14.9396C201.715 14.9826 201.561 16.3245 202.109 15.4219C202.145 15.3593 201.788 14.6738 202.457 14.7433C203.126 14.8131 204.489 14.3113 205.302 15.0764C205.499 15.2611 205.887 16.4326 206.473 15.6604C206.552 15.5553 206.547 15.1631 206.667 14.9645C207.055 14.3322 206.994 15.702 207.503 14.6106C208.013 13.5194 208.824 12.7696 209.623 13.7012C209.649 13.7286 209.702 14.8294 209.995 14.8574C210.462 14.9009 211.155 14.78 211.635 14.8611C211.865 14.9004 211.615 15.5403 211.654 15.5586C213.152 16.1703 214.347 15.7494 216.054 15.765C216.367 15.7665 217.087 16.813 217.798 16.203C218.582 15.5374 218.478 12.1725 219.859 13.2196C220.436 13.6455 220.377 17.8821 221.884 15.9877C223.605 16.8319 225.494 16.4818 227.187 17.384C227.428 17.5149 227.654 17.6634 227.88 17.8425C227.96 17.9051 227.882 19.1075 228.102 19.1619C228.439 19.2438 228.772 18.7774 229.013 18.8148C230.016 18.9546 230.772 19.6534 231.727 19.8276C232.094 19.8951 232.107 19.3172 232.536 19.3927C232.964 19.4672 233.072 20.2568 233.733 20.0431C234.235 19.8793 234.996 18.4965 235.613 18.4537C235.309 19.9188 235.712 19.9745 236.33 20.5244C236.449 20.6311 236.183 21.1032 236.233 21.1797C236.424 21.5009 236.763 21.1398 236.932 21.486C236.972 21.569 236.843 22.0633 236.866 22.1585C237.049 22.9812 237.954 22.0713 238.143 21.933C238.825 21.3813 238.749 22.08 239.161 21.9686C239.607 21.8863 239.34 21.2875 239.808 21.3622C239.994 21.3981 240.181 21.4645 240.362 21.5586C240.871 21.9629 240.48 22.7114 239.851 22.5507C239.038 22.5197 238.21 22.1851 237.522 21.9535C237.186 21.8365 237.65 21.281 237.607 21.2494C236.994 20.8386 236.035 21.2329 236.185 19.8251C234.369 22.8704 235.913 19.3478 234.705 19.5824C234.609 19.6019 233.83 21.0728 234.025 21.4265C234.223 21.7809 234.875 21.4978 235.14 22.0196C235.199 22.1418 235.182 23.8156 235.232 23.9359C235.592 24.8717 236.575 22.5873 236.653 22.472C237.533 21.2358 237.64 23.0559 237.803 23.2331C238.29 23.795 238.874 23.9157 239.422 24.1286C241.857 24.7497 243.365 21.8565 241.398 20.2939C241.152 20.0591 240.91 19.8327 240.693 19.5716C240.228 19.0221 240.834 17.5226 240.26 17.3308C238.423 16.8145 237.545 19.0108 236.776 16.7963C236.62 16.331 237.246 14.6502 236.057 15.815C235.986 15.8893 235.055 16.9904 234.878 16.1201C234.855 16.0102 234.973 15.5061 234.923 15.4498C234.592 15.0845 234.234 15.4239 233.857 15.1281C233.475 14.8312 233.06 14.4209 232.54 14.462C232.232 14.4879 231.605 15.3132 231.4 15.5C230.817 16.0409 230.716 14.8461 230.238 15.561C229.746 16.2752 229.87 17.6309 229.043 17.9332C229.423 16.6426 229.784 15.309 230.156 14.0081C229.608 13.8535 229.062 13.754 228.494 13.6457C227.402 13.4033 226.356 13.2554 225.365 12.9627C225.162 12.9016 225.551 12.2546 225.338 12.1716C224.419 11.8222 223.512 12.1463 222.611 11.7478C221.91 11.4362 221.267 10.5309 220.54 10.2002C219.8 11.6276 218.787 10.9164 217.963 10.9209C217.675 10.9217 217.626 11.3302 217.405 11.4292C216.578 11.7949 217.149 10.5111 216.978 10.2661C216.24 9.22017 215.676 12.2474 214.666 12.0106C214.612 11.999 214.201 10.2735 214.125 10.1585C213.646 9.40953 213.941 10.7078 213.559 10.771C212.863 10.8873 212.342 11.2036 211.642 10.6095C211.436 10.4337 211.055 9.34024 210.495 10.0543C210.422 10.1478 210.371 10.6887 210.32 10.7129C209.405 11.1071 209.64 9.41881 209.256 8.77474C208.87 8.13055 207.955 9.17698 207.752 9.48793C207.224 10.292 207.993 9.90577 208 9.99397C208.089 11.045 207.581 10.7864 207.157 10.8061C206.834 12.4468 206.276 12.2553 206.72 10.82C206.77 10.6635 207.063 10.8683 207.157 10.8061C207.057 9.12978 206.469 8.8225 205.53 10.22C205.089 10.8745 205.256 11.7522 204.322 11.2842C203.898 11.0719 204.264 9.96706 203.926 9.59071C203.156 8.73217 201.814 9.58174 200.93 9.24161C200.61 9.11841 201.05 8.56094 200.836 8.45545C200.272 8.17359 199.654 8.5337 199.106 8.17502C199.057 8.14176 199.32 7.52258 199.137 7.4767C198.81 7.39128 198.489 7.33419 198.17 7.29246C197.291 7.18777 196.203 7.16384 195.034 6.88854C194.291 6.71117 193.028 6.03898 192.217 5.93475C190.821 5.74698 188.936 6.34559 187.811 5.90501C187.077 5.62014 187.347 4.99988 187.1 4.50019C186.605 3.52797 185.209 4.88333 185.023 5.09995C185.012 5.10589 185.661 5.36677 185.25 5.64397C184.932 6.30746 185.031 5.10424 185.023 5.09995C184.904 5.23735 183.556 5.18638 183.312 5.02672C183.178 4.93821 183.345 4.33088 183.273 4.29639C181.561 3.49198 179.779 3.12392 177.935 3.24147C177.902 3.25102 177.884 3.95124 177.807 3.96504C176.73 4.17572 176.141 3.26962 175.31 2.69741C174.479 2.12627 173.773 2.25157 173.188 3.41822C172.541 3.22734 171.581 3.70896 171.035 4.00694C170.491 4.30477 170.47 2.94321 170.424 2.91424C169.606 2.40069 168.993 2.41104 168.314 2.53395C167.795 2.63218 167.258 2.80059 166.604 2.83828C165.888 2.88049 164.502 2.6522 163.728 2.48823C163.123 2.35631 162.762 2.66838 162.199 2.45446C162.123 2.42589 162.211 1.82164 162.188 1.79791C161.575 1.0624 161.851 2.54822 161.717 2.8104C161.236 3.76416 160.945 4.27143 160.15 3.80722C159.966 3.70087 159.468 1.56161 159.13 1.43258C158.691 1.26876 158.847 2.03497 158.391 1.84436C158.352 1.82877 158.365 1.35738 158.084 1.37496C156.771 1.45032 155.337 1.71294 153.976 1.65945C153.789 1.65395 154.032 0.907215 153.762 0.887005C152.512 0.792868 151.101 0.819181 149.884 1.17225C149.577 1.26152 149.771 1.78464 149.705 1.94028C149.299 2.88198 148.728 1.5176 148.634 1.49203C146.375 0.846416 144.648 2.10081 142.353 1.54913C142.217 1.51662 141.245 0.0682583 140.822 1.33377C140.79 1.41802 140.404 2.7116 140.003 1.84106C139.978 1.7866 140.232 1.11902 139.765 1.19667C139.307 1.27401 138.55 0.849722 137.927 1.59359C137.731 1.82788 137.288 3.12249 136.663 2.11793C136.625 2.04743 135.627 -0.235229 135.336 1.37017C135.286 1.63457 135.417 3.31848 134.656 2.4782C134.515 2.31514 134.746 1.93056 134.385 1.70772C133.809 1.365 133.096 1.84341 132.39 1.11831C132.276 0.993587 131.752 -0.0653515 131.408 0.670452C131.394 0.694452 131.38 0.720352 131.367 0.748245C131.301 0.88714 131.457 1.4447 131.221 1.51737C130.102 1.86687 128.995 1.56642 128.014 2.02031C127.666 2.18019 127.91 3.07725 127.551 3.34496C127.196 3.61245 126.471 3.89264 126.06 3.49956C125.655 3.10595 125.986 1.63282 125.408 1.54938C122.913 1.18491 120.483 2.13002 117.971 2.32508C117.599 2.35397 117.896 1.8263 117.339 1.8313C115.328 1.84877 111.789 1.42146 110.043 2.54348C108.632 3.44349 110.434 4.09662 109.344 4.46838C109.246 4.50128 109.145 4.47015 109.044 4.39729C108.626 4.0773 108.219 2.95308 108.115 2.91065C106.879 2.38078 106.029 3.13252 104.904 2.90718C104.677 2.86034 104.898 2.17551 104.704 2.14319C104.039 2.0267 103.33 2.33354 102.692 2.27854C102.403 2.25228 102.455 1.72973 102.188 1.77034C101.562 1.86141 100.996 2.08123 100.378 2.57087C100.322 2.61548 100.699 3.26548 100.234 3.28959C99.4767 3.32675 98.5328 3.80913 97.6552 3.3092C97.3931 3.15881 97.3857 1.9647 96.829 2.78861C96.7116 2.96068 96.8604 4.3948 96.2102 3.1549C96.0973 2.94887 95.0137 1.27604 94.4723 2.35228C94.3296 2.63553 93.964 3.80825 93.6542 3.62331C93.612 3.59381 93.7825 2.9527 93.5243 2.88969C92.6105 2.67875 91.6562 2.74549 90.7134 2.5431C90.4619 2.48779 90.8363 1.82465 90.4638 1.76341C89.4386 1.59404 88.1533 1.76138 87.1447 1.96836C86.7741 2.04593 87.0298 2.59594 87.0028 2.65575C86.5689 3.62862 86.313 2.31491 86.1689 2.23824C85.2712 1.7792 84.5898 2.39624 83.7621 2.23335C83.5337 2.19008 83.6953 1.56365 83.6498 1.50783C83.1781 0.96244 83.5299 2.08703 83.2318 2.21123C82.3967 2.56294 81.4646 2.51391 80.6187 2.43579C80.3082 2.40618 80.6555 1.67912 80.3767 1.66096C78.7237 1.53973 77.0091 1.61613 75.3939 2.02678C75.0908 2.10543 75.2855 2.66343 75.223 2.79156C74.7956 3.68794 74.1437 2.47381 73.9956 2.35888C73.3204 1.834 73.0694 2.33076 72.4723 2.24401C69.5759 1.81065 65.9882 2.19238 63.2451 2.46648C61.0843 2.67926 59.2106 2.99864 57.2981 3.23551C56.0659 3.3905 54.8568 3.49593 53.5202 3.49926C53.3068 3.50046 53.4891 2.74788 53.3052 2.73933C50.9375 2.66259 48.6166 3.04727 46.2362 2.92391C46.0431 2.91502 46.2928 2.19961 45.983 2.1616C45.3281 2.07944 44.5228 2.14839 43.8806 2.39804C43.5717 2.5183 44.0139 3.1072 43.7032 3.21587C42.9598 3.47104 42.1656 3.55124 41.3996 3.46736C41.0671 3.4304 41.5376 2.69054 41.1088 2.69863C38.2135 2.74129 35.3393 2.71863 32.3042 3.86543C32.0932 3.94491 32.0167 5.41979 31.5469 5.17491C31.4802 4.77207 31.4439 4.29487 31.394 3.8626C29.8026 3.90763 28.1447 4.0905 26.4553 4.41519C23.7854 4.94139 21.1553 5.60873 18.4871 6.08873C18.3138 6.11973 18.4909 5.30462 18.1551 5.36065C16.2078 5.6843 14.2954 5.76751 12.4351 6.82647C12.2502 6.93037 12.5525 8.26723 11.9433 8.14845C11.8343 8.12669 10.9382 8.07344 10.6708 7.81184C10.6341 7.7719 10.7011 7.11792 10.4196 7.13954C8.78317 7.27627 7.11413 7.6481 5.55837 8.22811C5.30832 8.32276 5.66393 8.96417 5.48612 9.03743C4.20995 9.55363 2.7424 9.19146 1.55736 9.9167C0.764142 10.4034 1.17056 11.546 0.814571 12.7352C0.7647 12.9031 0.238672 12.9697 0.260615 13.642C0.312828 15.3337 0.716218 17.1602 0.742045 18.9656C0.746838 19.3551 -0.0341018 18.9916 0.477552 19.8957C0.511985 19.9565 1.08734 20.2258 1.24777 20.532C1.3595 20.7439 1.24247 21.4392 1.4587 21.7045C1.67531 21.9695 1.84482 21.3805 2.1928 21.6827C2.542 21.9883 2.47077 22.7766 3.12485 22.8089ZM168.589 5.35549C168.415 5.57165 168.3 5.44068 168.242 5.19537C168.181 4.92719 168.188 4.52227 168.267 4.28542C168.329 4.09891 168.438 4.01672 168.59 4.18805C168.615 4.2193 168.615 5.3242 168.589 5.35549ZM226.509 15.2149C225.578 16.0374 225.547 14.4247 226.233 13.7687C226.933 13.1197 226.806 14.9708 226.509 15.2149ZM232.446 17.8436C231.537 18.4671 232.316 15.1628 232.854 16.0126C232.886 16.0609 232.498 17.8072 232.446 17.8436ZM2.94708 12.873C2.94454 12.9053 2.56565 12.9735 2.55348 12.9429C2.27897 12.2061 3.03065 12.0711 2.94708 12.873ZM238.584 20.2353C238.204 20.5816 237.698 19.8816 238.149 19.4198C238.527 19.0465 239.088 19.8081 238.584 20.2353ZM143.43 7.72053C143.423 7.75628 143.141 7.79259 143.144 7.59099C143.153 6.9416 143.55 7.11897 143.43 7.72053ZM231.308 19.5296C232.777 19.9221 234.913 17.8246 233.02 17.3765C232.687 17.3061 233.365 18.4763 232.874 18.5516C232.011 18.7019 232.112 16.8764 231.078 17.5189C230.893 17.6375 231.227 19.5127 231.31 19.5342C231.309 19.5326 231.309 19.5311 231.308 19.5296ZM168.225 8.22042C168.223 8.22808 168.198 8.23502 168.161 8.2407C168.047 8.25825 167.822 8.26367 167.816 8.2398C167.685 7.71394 168.015 7.53054 168.174 7.72271C168.247 7.81006 168.284 7.97497 168.225 8.22042ZM127.269 9.78666C127.25 9.85579 126.354 9.97291 126.325 9.91196C125.788 8.69986 127.584 8.46054 127.269 9.78666ZM193.514 13.2908C193.74 14.1327 194.195 14.3379 194.761 13.4887C194.335 13.4364 193.933 13.3447 193.514 13.2908Z" fill="#FBBBD5"/>
</svg>
