<svg width="602" height="393" viewBox="0 0 602 393" fill="none" xmlns="http://www.w3.org/2000/svg">
<path fill-rule="evenodd" clip-rule="evenodd" d="M1.35126 -455.964C-79.0608 -478.295 -114.314 -650.979 -189.02 -613.767C-264.304 -576.267 -117.081 -418.004 -182.07 -364.599C-271.595 -291.029 -496.987 -450.934 -524.258 -338.278C-551.354 -226.343 -253.737 -278.106 -230.303 -165.346C-206.203 -49.3766 -433.115 6.06964 -428.103 124.413C-424.697 204.835 -281.955 185.905 -213.629 228.401C-136.279 276.508 -88.1409 408.431 1.35126 391.512C100.02 372.857 109.703 225.17 180.469 153.891C225.415 108.619 283.723 82.856 339.141 51.2744C423.942 2.94891 557.995 7.5932 595.426 -82.5817C630.037 -165.962 517.66 -243.549 498.108 -331.689C478.409 -420.488 560.604 -557.527 480.517 -600.573C378.474 -655.42 257.731 -553.967 146.83 -520.498C95.4 -504.977 53.1132 -441.589 1.35126 -455.964Z" fill="#ED006C"/>
</svg>
