<svg width="24" height="24" viewBox="0 0 24 24" fill="none" xmlns="http://www.w3.org/2000/svg">
<path fill-rule="evenodd" clip-rule="evenodd" d="M3.62029 2.00066C3.7772 1.83519 3.8633 1.61499 3.86027 1.38698C3.85724 1.15896 3.76532 0.94113 3.60407 0.779883C3.44282 0.618635 3.225 0.526708 2.99698 0.523678C2.76896 0.520649 2.54877 0.606756 2.38329 0.763662L0.383291 2.76366C0.226385 2.92914 0.140278 3.14933 0.143307 3.37735C0.146337 3.60537 0.238264 3.82319 0.399512 3.98444C0.560759 4.14569 0.778586 4.23762 1.0066 4.24065C1.23462 4.24368 1.45482 4.15757 1.62029 4.00066L3.62029 2.00066ZM8.62029 2.00066C8.70509 1.92025 8.77293 1.82367 8.81979 1.71661C8.86666 1.60956 8.8916 1.4942 8.89315 1.37735C8.89471 1.26049 8.87284 1.14451 8.82883 1.03625C8.78483 0.92799 8.71958 0.829639 8.63695 0.747004C8.55431 0.664369 8.45596 0.599125 8.3477 0.555121C8.23944 0.511118 8.12346 0.489247 8.00661 0.4908C7.88975 0.492353 7.77439 0.517297 7.66734 0.564162C7.56028 0.611026 7.4637 0.678861 7.38329 0.763662L0.383291 7.76366C0.29849 7.84407 0.230655 7.94065 0.183791 8.04771C0.136926 8.15477 0.111981 8.27012 0.110429 8.38698C0.108876 8.50383 0.130747 8.61981 0.17475 8.72807C0.218754 8.83633 0.283998 8.93468 0.366633 9.01732C0.449268 9.09995 0.547619 9.1652 0.655881 9.2092C0.764144 9.25321 0.880124 9.27508 0.996977 9.27352C1.11383 9.27197 1.22919 9.24703 1.33624 9.20016C1.4433 9.1533 1.53988 9.08546 1.62029 9.00066L8.62029 2.00066ZM13.6203 2.00066C13.7051 1.92025 13.7729 1.82367 13.8198 1.71661C13.8667 1.60956 13.8916 1.4942 13.8932 1.37735C13.8947 1.26049 13.8728 1.14451 13.8288 1.03625C13.7848 0.92799 13.7196 0.829639 13.6369 0.747004C13.5543 0.664369 13.456 0.599125 13.3477 0.555121C13.2394 0.511118 13.1235 0.489247 13.0066 0.4908C12.8898 0.492352 12.7744 0.517297 12.6673 0.564162C12.5603 0.611026 12.4637 0.678861 12.3833 0.763662L10.8833 2.26366C10.7985 2.34407 10.7307 2.44065 10.6838 2.54771C10.6369 2.65476 10.612 2.77012 10.6104 2.88698C10.6089 3.00383 10.6307 3.11981 10.6748 3.22807C10.7188 3.33633 10.784 3.43468 10.8666 3.51732C10.9493 3.59995 11.0476 3.6652 11.1559 3.7092C11.2641 3.75321 11.3801 3.77508 11.497 3.77352C11.6138 3.77197 11.7292 3.74703 11.8362 3.70016C11.9433 3.6533 12.0399 3.58546 12.1203 3.50066L13.6203 2.00066ZM18.6203 2.00066C18.7051 1.92025 18.7729 1.82367 18.8198 1.71661C18.8667 1.60956 18.8916 1.4942 18.8932 1.37735C18.8947 1.26049 18.8728 1.14451 18.8288 1.03625C18.7848 0.92799 18.7196 0.829639 18.6369 0.747004C18.5543 0.664369 18.456 0.599125 18.3477 0.555121C18.2394 0.511118 18.1235 0.489247 18.0066 0.4908C17.8898 0.492352 17.7744 0.517297 17.6673 0.564162C17.5603 0.611026 17.4637 0.678861 17.3833 0.763662L15.3833 2.76366C15.2985 2.84407 15.2307 2.94065 15.1838 3.04771C15.1369 3.15476 15.112 3.27012 15.1104 3.38698C15.1089 3.50383 15.1307 3.61981 15.1748 3.72807C15.2188 3.83633 15.284 3.93468 15.3666 4.01732C15.4493 4.09995 15.5476 4.1652 15.6559 4.2092C15.7641 4.25321 15.8801 4.27508 15.997 4.27352C16.1138 4.27197 16.2292 4.24703 16.3362 4.20016C16.4433 4.1533 16.5399 4.08546 16.6203 4.00066L18.6203 2.00066ZM23.6203 2.00066C23.7051 1.92025 23.7729 1.82367 23.8198 1.71661C23.8667 1.60956 23.8916 1.4942 23.8932 1.37735C23.8947 1.26049 23.8728 1.14451 23.8288 1.03625C23.7848 0.92799 23.7196 0.829639 23.6369 0.747004C23.5543 0.664369 23.456 0.599125 23.3477 0.555121C23.2394 0.511118 23.1235 0.489247 23.0066 0.4908C22.8898 0.492352 22.7744 0.517297 22.6673 0.564161C22.5603 0.611026 22.4637 0.678861 22.3833 0.763662L17.8833 5.26366C17.7985 5.34407 17.7307 5.44065 17.6838 5.54771C17.6369 5.65477 17.612 5.77012 17.6104 5.88698C17.6089 6.00383 17.6307 6.11981 17.6748 6.22807C17.7188 6.33633 17.784 6.43468 17.8666 6.51732C17.9493 6.59995 18.0476 6.6652 18.1559 6.7092C18.2641 6.75321 18.3801 6.77508 18.497 6.77352C18.6138 6.77197 18.7292 6.74703 18.8362 6.70016C18.9433 6.6533 19.0399 6.58546 19.1203 6.50066L23.6203 2.00066ZM23.6203 7.00066C23.7051 6.92025 23.7729 6.82367 23.8198 6.71661C23.8667 6.60956 23.8916 6.4942 23.8932 6.37735C23.8947 6.26049 23.8728 6.14451 23.8288 6.03625C23.7848 5.92799 23.7196 5.82964 23.6369 5.747C23.5543 5.66437 23.456 5.59912 23.3477 5.55512C23.2394 5.51112 23.1235 5.48925 23.0066 5.4908C22.8898 5.49235 22.7744 5.5173 22.6673 5.56416C22.5603 5.61103 22.4637 5.67886 22.3833 5.76366L19.3833 8.76366C19.2985 8.84407 19.2307 8.94065 19.1838 9.04771C19.1369 9.15476 19.112 9.27012 19.1104 9.38698C19.1089 9.50383 19.1307 9.61981 19.1748 9.72807C19.2188 9.83633 19.284 9.93468 19.3666 10.0173C19.4493 10.1 19.5476 10.1652 19.6559 10.2092C19.7641 10.2532 19.8801 10.2751 19.997 10.2735C20.1138 10.272 20.2292 10.247 20.3362 10.2002C20.4433 10.1533 20.5399 10.0855 20.6203 10.0007L23.6203 7.00066ZM4.12029 11.5007C4.20509 11.4203 4.27293 11.3237 4.31979 11.2166C4.36666 11.1096 4.3916 10.9942 4.39315 10.8773C4.39471 10.7605 4.37284 10.6445 4.32883 10.5363C4.28483 10.428 4.21958 10.3296 4.13695 10.247C4.05431 10.1644 3.95596 10.0991 3.8477 10.0551C3.73944 10.0111 3.62346 9.98925 3.5066 9.9908C3.38975 9.99235 3.27439 10.0173 3.16734 10.0642C3.06028 10.111 2.9637 10.1789 2.88329 10.2637L0.383291 12.7637C0.29849 12.8441 0.230655 12.9407 0.183791 13.0477C0.136926 13.1548 0.111982 13.2701 0.110429 13.387C0.108876 13.5038 0.130747 13.6198 0.17475 13.7281C0.218754 13.8363 0.283998 13.9347 0.366633 14.0173C0.449268 14.1 0.547619 14.1652 0.655881 14.2092C0.764144 14.2532 0.880124 14.2751 0.996977 14.2735C1.11383 14.272 1.22919 14.247 1.33624 14.2002C1.4433 14.1533 1.53988 14.0855 1.62029 14.0007L4.12029 11.5007ZM23.6203 12.0007C23.7051 11.9203 23.7729 11.8237 23.8198 11.7166C23.8667 11.6096 23.8916 11.4942 23.8932 11.3773C23.8947 11.2605 23.8728 11.1445 23.8288 11.0363C23.7848 10.928 23.7196 10.8296 23.6369 10.747C23.5543 10.6644 23.456 10.5991 23.3477 10.5551C23.2394 10.5111 23.1235 10.4892 23.0066 10.4908C22.8898 10.4924 22.7744 10.5173 22.6673 10.5642C22.5603 10.611 22.4637 10.6789 22.3833 10.7637L18.3833 14.7637C18.2985 14.8441 18.2307 14.9407 18.1838 15.0477C18.1369 15.1548 18.112 15.2701 18.1104 15.387C18.1089 15.5038 18.1307 15.6198 18.1748 15.7281C18.2188 15.8363 18.284 15.9347 18.3666 16.0173C18.4493 16.1 18.5476 16.1652 18.6559 16.2092C18.7641 16.2532 18.8801 16.2751 18.997 16.2735C19.1138 16.272 19.2292 16.247 19.3362 16.2002C19.4433 16.1533 19.5399 16.0855 19.6203 16.0007L23.6203 12.0007ZM5.12029 15.5007C5.20509 15.4203 5.27293 15.3237 5.31979 15.2166C5.36666 15.1096 5.3916 14.9942 5.39315 14.8773C5.39471 14.7605 5.37284 14.6445 5.32883 14.5363C5.28483 14.428 5.21958 14.3296 5.13695 14.247C5.05431 14.1644 4.95596 14.0991 4.8477 14.0551C4.73944 14.0111 4.62346 13.9892 4.50661 13.9908C4.38975 13.9924 4.27439 14.0173 4.16734 14.0642C4.06028 14.111 3.9637 14.1789 3.88329 14.2637L0.383291 17.7637C0.29849 17.8441 0.230655 17.9407 0.183791 18.0477C0.136926 18.1548 0.111982 18.2701 0.110429 18.387C0.108876 18.5038 0.130747 18.6198 0.17475 18.7281C0.218754 18.8363 0.283998 18.9347 0.366633 19.0173C0.449268 19.1 0.547619 19.1652 0.655881 19.2092C0.764144 19.2532 0.880124 19.2751 0.996977 19.2735C1.11383 19.272 1.22919 19.247 1.33624 19.2002C1.4433 19.1533 1.53988 19.0855 1.62029 19.0007L5.12029 15.5007ZM20.3833 17.7637C20.2985 17.8441 20.2307 17.9407 20.1838 18.0477C20.1369 18.1548 20.112 18.2701 20.1104 18.387C20.1089 18.5038 20.1307 18.6198 20.1748 18.7281C20.2188 18.8363 20.284 18.9347 20.3666 19.0173C20.4493 19.1 20.5476 19.1652 20.6559 19.2092C20.7641 19.2532 20.8801 19.2751 20.997 19.2735C21.1138 19.272 21.2292 19.247 21.3362 19.2002C21.4433 19.1533 21.5399 19.0855 21.6203 19.0007L23.6203 17.0007C23.7051 16.9203 23.7729 16.8237 23.8198 16.7166C23.8667 16.6096 23.8916 16.4942 23.8932 16.3773C23.8947 16.2605 23.8728 16.1445 23.8288 16.0363C23.7848 15.928 23.7196 15.8296 23.6369 15.747C23.5543 15.6644 23.456 15.5991 23.3477 15.5551C23.2394 15.5111 23.1235 15.4892 23.0066 15.4908C22.8898 15.4924 22.7744 15.5173 22.6673 15.5642C22.5603 15.611 22.4637 15.6789 22.3833 15.7637L20.3833 17.7637ZM5.90629 10.8822C5.90629 7.56866 8.59229 4.88216 11.9063 4.88216C15.2203 4.88216 17.9063 7.56866 17.9063 10.8822C17.9063 12.8622 16.9463 14.6182 15.4688 15.7102C17.6788 16.8017 19.3088 18.8777 19.7728 21.3632C19.8743 21.9087 19.7703 22.4382 19.4703 22.8557C19.1703 23.2742 18.7003 23.5407 18.1468 23.6127C17.0688 23.7522 15.1878 23.8822 11.9063 23.8822C8.62479 23.8822 6.74329 23.7522 5.66529 23.6127C5.11179 23.5412 4.64229 23.2742 4.34179 22.8557C4.04179 22.4382 3.93779 21.9087 4.03979 21.3632C4.50329 18.8782 6.13329 16.8017 8.34329 15.7102C7.58702 15.1529 6.97243 14.4255 6.54917 13.5868C6.12592 12.7481 5.90587 11.8216 5.90679 10.8822" fill="white" fill-opacity="0.8"/>
</svg>
